<svg id="Layer_35" enable-background="new 0 0 62.6 62" height="512" viewBox="0 0 62.6 62" width="512" xmlns="http://www.w3.org/2000/svg"><g><g><g><path d="m2 33v6c0 1.1.9 2 2 2h14c1.1 0 2-.9 2-2v-6z" fill="#d3a06c"/></g><g><path d="m20 30v3h-9-9v-3c0-1.66 1.34-3 3-3h6 6c1.66 0 3 1.34 3 3z" fill="#b27946"/></g><g><path d="m44.04 53c3.83-.01 7.5-1.54 10.2-4.24.47-.47.86-1.01 1.14-1.6 2.65.62 4.62 3 4.62 5.84h-2-4-6z" fill="#fc6e51"/></g><g><path d="m44.04 53c-.01 0-.03 0-.04 0v1c0 3.87 3.13 7 7 7s7-3.13 7-7v-1z" fill="#969faa"/></g><g><path d="m9 53v1c0 3.87 3.13 7 7 7s7-3.13 7-7v-1z" fill="#969faa"/></g><g><path d="m54 53v1c0 1.66-1.34 3-3 3s-3-1.34-3-3v-1z" fill="#ccd1d9"/></g><g><path d="m19 53v1c0 1.66-1.34 3-3 3s-3-1.34-3-3v-1z" fill="#ccd1d9"/></g><g><path d="m4 47c.55 0 1 .45 1 1v2c0 .55-.45 1-1 1h-2c-.55 0-1-.45-1-1v-2c0-.55.45-1 1-1z" fill="#ccd1d9"/></g><g><path d="m32 52v-1-1-8h-1c-1.13 0-2.17-.37-3-1h-10-7-1c-2.76 0-5 2.24-5 5v2 2 1c0 1.1.9 2 2 2h26c-.55 0-1-.45-1-1z" fill="#ff826e"/></g><g><path d="m23 49v4h-4-6-4v-4c0-1.1.9-2 2-2h10c1.1 0 2 .9 2 2z" fill="#fc6e51"/></g><g><path d="m50 42-1-7h3l1.99 2.49c1.3 1.63 2.01 3.64 2.01 5.72v1.3c0 .93-.21 1.84-.62 2.65-.28.59-.67 1.13-1.14 1.6-2.7 2.7-6.37 4.23-10.2 4.24 3.29-.02 5.96-2.7 5.96-6z" fill="#ff826e"/></g><g><path d="m51 33c0 1.1-.9 2-2 2h-1.77c.56-.75.77-1.35.77-2 0-.89-.38-1.69-1-2.23v-3.77c0-1.1.9-2 2-2s2 .9 2 2z" fill="#ff826e"/></g><g><path d="m49 25h4c1.1 0 2 .9 2 2v6c0 1.1-.9 2-2 2h-1-3c1.1 0 2-.9 2-2v-6c0-1.1-.9-2-2-2z" fill="#fc6e51"/></g><g><path d="m34 30h8v6c0 1.1-.9 2-2 2h-4-1.85c-3.23 0-6.26-1.56-8.14-4.19l-1.18-1.64c-.54-.76-.83-1.67-.83-2.6v-.1c0-1.23.5-2.35 1.31-3.16s1.93-1.31 3.16-1.31c1.57 0 3.02.82 3.83 2.17z" fill="#fcd770"/></g><g><path d="m42 13v4c0 2.21-1.79 4-4 4h-1.07c.68-1.17 1.07-2.54 1.07-4v-1-4c0-1.66-1.34-3-3-3h-3l2.65-7.06v-.01c4.32 1.81 7.35 6.09 7.35 11.07z" fill="#aab2bd"/></g><g><path d="m21.35 1.94 2.65 7.06h-3c-1.66 0-3 1.34-3 3v4 1c0 1.46.39 2.83 1.07 4h-1.07c-.96 0-1.85-.34-2.54-.91-.89-.74-1.46-1.85-1.46-3.09v-4c0-4.98 3.03-9.26 7.35-11.07z" fill="#aab2bd"/></g><g><path d="m34.65 1.93v.01l-2.65 7.06h-8l-2.65-7.06v-.01c1.43-.6 3-.93 4.65-.93h4c1.65 0 3.22.33 4.65.93z" fill="#ccd1d9"/></g><g><path d="m42 52c0 .55-.45 1-1 1h-8c-.55 0-1-.45-1-1v-1-1c0-.55.45-1 1-1h6c.35 0 .69.06 1 .18 1.17.4 2 1.51 2 2.82z" fill="#d3a06c"/></g><g><path d="m39 49h-6c-.55 0-1 .45-1 1v-8h-1c-1.13 0-2.17-.37-3-1-1.21-.91-2-2.37-2-4v-3.19h.01c1.88 2.63 4.91 4.19 8.14 4.19h1.85c2.21 0 4 1.79 4 4v7.17.01c-.31-.12-.65-.18-1-.18z" fill="#969faa"/></g><g><path d="m48 33c0 .65-.21 1.25-.77 2-.03.04-.07.08-.11.12-.54.54-1.29.88-2.12.88h-3v-6h3c.77 0 1.47.29 2 .77.62.54 1 1.34 1 2.23z" fill="#f0d0b4"/></g><g><path d="m35.04 23.21c-.84-1.57-1.04-2.82-2.53-3.54l5.49-3.67v1c0 1.46-.39 2.83-1.07 4-.49.85-1.13 1.6-1.89 2.21z" fill="#f0d0b4"/></g><g><path d="m38 16-5.49 3.67c-.9-.43-2.26-.67-4.51-.67s-3.61.24-4.51.67l-5.49-3.67v-4c0-1.66 1.34-3 3-3h3 8 3c1.66 0 3 1.34 3 3z" fill="#f0d0b4"/></g><g><path d="m23.49 19.67c-1.49.72-1.69 1.97-2.53 3.54-.76-.61-1.4-1.36-1.89-2.21-.68-1.17-1.07-2.54-1.07-4v-1z" fill="#f0d0b4"/></g><g><path d="m32.51 19.67c1.49.72 1.69 1.97 2.53 3.54-1.38 1.12-3.13 1.79-5.04 1.79h-1.53-2.47c-1.91 0-3.66-.67-5.04-1.79.84-1.57 1.04-2.82 2.53-3.54.9-.43 2.26-.67 4.51-.67s3.61.24 4.51.67z" fill="#e6e9ed"/></g></g><g><path d="m56.702 46.544c.196-.65.298-1.332.298-2.029v-1.305c0-2.296-.79-4.548-2.225-6.341l-.829-1.037c1.189-.398 2.054-1.51 2.054-2.832v-6c0-1.654-1.346-3-3-3h-4c-1.654 0-3 1.346-3 3v2.142c-.322-.084-.653-.142-1-.142h-2-1-7.434l-1.407-2.345c-.217-.361-.479-.687-.768-.983 1.487-.408 2.853-1.188 3.973-2.308.422-.422.797-.879 1.122-1.364h.514c2.757 0 5-2.243 5-5v-4c0-7.168-5.832-13-13-13h-4c-7.168 0-13 5.832-13 13v4c0 2.757 2.243 5 5 5h.523c1.332 1.985 3.433 3.407 5.873 3.848-.865.981-1.396 2.278-1.396 3.72 0 1.147.353 2.246 1.019 3.179l.981 1.374v2.879c0 1.093.299 2.116.812 3h-4.996c.112-.314.184-.648.184-1v-9c0-2.206-1.794-4-4-4h-4.234l2.091-3.485-1.715-1.029-2.142 3.57-2.143-3.571-1.715 1.029 2.092 3.486h-4.234c-2.206 0-4 1.794-4 4v9c0 1.654 1.346 3 3 3h1.54c-.954 1.063-1.54 2.462-1.54 4h-2c-1.103 0-2 .897-2 2v2c0 1.103.897 2 2 2h2c.061 0 .119-.013.179-.018.409 1.171 1.512 2.018 2.821 2.018h1c0 4.411 3.589 8 8 8s8-3.589 8-8h9 8 2c0 4.411 3.589 8 8 8s8-3.589 8-8h2v-1c0-2.874-1.721-5.386-4.298-6.456zm-1.702-3.334v1.305c0 1.335-.52 2.591-1.464 3.536-1.048 1.048-2.244 1.89-3.533 2.533.628-1.051.997-2.274.997-3.584v-5l-.849-6h1.368l1.694 2.119c1.153 1.439 1.787 3.247 1.787 5.091zm-14 5.346v-6.556c0-1.13-.391-2.162-1.026-3h.026c1.302 0 2.402-.839 2.816-2h2.184c1.005 0 1.914-.385 2.618-1h.515l.867 6.071v4.929c0 2.757-2.243 5-5 5h-1c0-1.474-.81-2.75-2-3.444zm-7.707-9.263-1.707 1.707h-.586c-2.206 0-4-1.794-4-4v-.642c1.971 1.682 4.503 2.642 7.146 2.642h1.854c1.654 0 3 1.346 3 3v6h-6v-5.586l1.707-1.707zm20.707-12.293v6c0 .551-.449 1-1 1h-1.184c.112-.314.184-.648.184-1v-6c0-.352-.072-.686-.184-1h1.184c.551 0 1 .449 1 1zm-5-1c.551 0 1 .449 1 1v6c0 .551-.449 1-1 1h-.142c.084-.322.142-.653.142-1 0-1.005-.385-1.914-1-2.618v-3.382c0-.551.449-1 1-1zm-4 5c1.103 0 2 .897 2 2s-.897 2-2 2h-2v-4zm-11.03 3.243.811-3.243h6.219v5c0 .551-.449 1-1 1h-5.854c-2.9 0-5.638-1.409-7.323-3.769l-1.177-1.647c-.422-.591-.646-1.289-.646-2.115 0-1.913 1.556-3.469 3.469-3.469 1.212 0 2.352.646 2.975 1.685l1.485 2.475-.899 3.598zm-7.97-10.243c-1.388 0-2.68-.411-3.77-1.111.057-.121.115-.244.169-.36.776-1.684 1.165-2.529 5.601-2.529 4.437 0 4.826.845 5.601 2.529.054.118.113.242.171.365-1.116.717-2.413 1.106-3.772 1.106zm9-14c1.103 0 2 .897 2 2v3.466l-4.602 3.08c-1.01-.355-2.397-.546-4.398-.546-2.002 0-3.388.191-4.398.545l-4.602-3.079v-3.466c0-.534.208-1.037.585-1.414.379-.378.881-.586 1.415-.586zm.338 11.523c-.323-.69-.648-1.295-1.104-1.8l2.7-1.807c-.174 1.334-.721 2.577-1.596 3.607zm5.662-8.523v4c0 1.484-1.085 2.711-2.502 2.95.324-.938.503-1.929.502-2.95v-5c0-2.206-1.794-4-4-4h-1.557l1.758-4.689c3.449 1.859 5.799 5.504 5.799 9.689zm-11-11c1.171 0 2.299.188 3.359.529l-2.052 5.471h-6.614l-2.052-5.471c1.06-.341 2.188-.529 3.359-.529zm-15 15v-4c0-4.185 2.35-7.83 5.799-9.689l1.758 4.689h-1.557c-1.069 0-2.073.416-2.829 1.172-.755.755-1.171 1.76-1.171 2.828v5c0 1.034.184 2.024.507 2.95-1.419-.237-2.507-1.464-2.507-2.95zm4.068.918 2.698 1.806c-.455.504-.779 1.108-1.102 1.796-.848-1-1.416-2.24-1.596-3.602zm-1.068 22.082h-6v-6h7v5c0 .551-.449 1-1 1zm1-10v2h-7v-4h5c1.103 0 2 .897 2 2zm-14-2h5v4h-7v-2c0-1.103.897-2 2-2zm-2 11v-5h7v6h-6c-.551 0-1-.449-1-1zm-1 11v-2h2v2zm20 2h-12v-3c0-.551.449-1 1-1h10c.551 0 1 .449 1 1zm-4 2c0 1.103-.897 2-2 2s-2-.897-2-2zm-2 6c-3.309 0-6-2.691-6-6h2c0 2.206 1.794 4 4 4s4-1.794 4-4h2c0 3.309-2.691 6-6 6zm8-8v-3c0-1.654-1.346-3-3-3h-10c-1.654 0-3 1.346-3 3v3h-1c-.551 0-1-.449-1-1v-1-2-2c0-2.206 1.794-4 4-4h8 9.69c.95.631 2.087 1 3.31 1v7 1 1zm9 0v-1-1h6c1.103 0 2 .897 2.001 2zm18 8c-3.309 0-6-2.691-6-6h2c0 2.206 1.794 4 4 4s4-1.794 4-4h2c0 3.309-2.691 6-6 6zm-2-6h4c0 1.103-.897 2-2 2s-2-.897-2-2zm2.598-2c1.21-.684 2.341-1.526 3.351-2.536.343-.343.643-.716.904-1.111 1.575.623 2.716 1.997 3.047 3.647z"/><path d="m58 29h4v2h-4z"/><path d="m59 31h2v5h-2z" transform="matrix(.6 -.8 .8 .6 -2.805 61.388)"/><path d="m57.764 25h4.472v2h-4.472z" transform="matrix(.894 -.447 .447 .894 -5.293 29.578)"/><path d="m21 16h2v-1c0-.551.449-1 1-1s1 .449 1 1v1h2v-1c0-1.654-1.346-3-3-3s-3 1.346-3 3z"/><path d="m31 15c0-.551.449-1 1-1s1 .449 1 1v1h2v-1c0-1.654-1.346-3-3-3s-3 1.346-3 3v1h2z"/></g></g></svg>